<mxfile host="app.diagrams.net" modified="2024-04-20T01:28:08.110Z" agent="Mozilla/5.0 (Windows NT 10.0; Win64; x64) AppleWebKit/537.36 (KHTML, like Gecko) Chrome/121.0.0.0 Safari/537.36 OPR/107.0.0.0" etag="EIVV0uWTu4v1nm_bMJR2" scale="1" border="20" version="24.2.5" type="device">
  <diagram name="Page-1" id="HYd8ncunls_-nP6pL6kR">
    <mxGraphModel dx="1257" dy="578" grid="1" gridSize="10" guides="1" tooltips="1" connect="1" arrows="1" fold="1" page="1" pageScale="1" pageWidth="850" pageHeight="1100" math="0" shadow="0">
      <root>
        <mxCell id="0" />
        <mxCell id="1" parent="0" />
        <mxCell id="9XVVSbY3bbq7c6_Pm6am-3" style="edgeStyle=orthogonalEdgeStyle;rounded=0;orthogonalLoop=1;jettySize=auto;html=1;curved=0;" parent="1" target="9XVVSbY3bbq7c6_Pm6am-5" edge="1">
          <mxGeometry relative="1" as="geometry">
            <mxPoint x="49.928571428571445" y="215.02857142857135" as="sourcePoint" />
            <mxPoint x="190" y="215" as="targetPoint" />
            <Array as="points">
              <mxPoint x="170" y="215" />
              <mxPoint x="170" y="215" />
            </Array>
          </mxGeometry>
        </mxCell>
        <mxCell id="9XVVSbY3bbq7c6_Pm6am-4" value="mouseClicked(X,Y)" style="edgeLabel;html=1;align=center;verticalAlign=middle;resizable=0;points=[];" parent="9XVVSbY3bbq7c6_Pm6am-3" vertex="1" connectable="0">
          <mxGeometry x="-0.4733" y="-4" relative="1" as="geometry">
            <mxPoint x="34" y="-20" as="offset" />
          </mxGeometry>
        </mxCell>
        <mxCell id="9XVVSbY3bbq7c6_Pm6am-1" value="" style="shape=umlLifeline;perimeter=lifelinePerimeter;whiteSpace=wrap;html=1;container=1;dropTarget=0;collapsible=0;recursiveResize=0;outlineConnect=0;portConstraint=eastwest;newEdgeStyle={&quot;curved&quot;:0,&quot;rounded&quot;:0};participant=umlActor;" parent="1" vertex="1">
          <mxGeometry x="40" y="150" width="20" height="1290" as="geometry" />
        </mxCell>
        <mxCell id="9XVVSbY3bbq7c6_Pm6am-2" value="&amp;lt;&amp;lt;This represents both GF scenarios and event handler&amp;gt;&amp;gt;&lt;div&gt;:GreenFoot GUI&lt;/div&gt;" style="shape=umlLifeline;perimeter=lifelinePerimeter;whiteSpace=wrap;html=1;container=1;dropTarget=0;collapsible=0;recursiveResize=0;outlineConnect=0;portConstraint=eastwest;newEdgeStyle={&quot;curved&quot;:0,&quot;rounded&quot;:0};" parent="1" vertex="1">
          <mxGeometry x="110" y="150" width="180" height="1290" as="geometry" />
        </mxCell>
        <mxCell id="9XVVSbY3bbq7c6_Pm6am-5" value="" style="html=1;points=[[0,0,0,0,5],[0,1,0,0,-5],[1,0,0,0,5],[1,1,0,0,-5]];perimeter=orthogonalPerimeter;outlineConnect=0;targetShapes=umlLifeline;portConstraint=eastwest;newEdgeStyle={&quot;curved&quot;:0,&quot;rounded&quot;:0};" parent="9XVVSbY3bbq7c6_Pm6am-2" vertex="1">
          <mxGeometry x="85" y="60" width="10" height="1150" as="geometry" />
        </mxCell>
        <mxCell id="9XVVSbY3bbq7c6_Pm6am-6" value="&amp;lt;&amp;lt;Actor&amp;gt;&amp;gt;&lt;div&gt;tower[i]:Tower&lt;/div&gt;" style="shape=umlLifeline;perimeter=lifelinePerimeter;whiteSpace=wrap;html=1;container=1;dropTarget=0;collapsible=0;recursiveResize=0;outlineConnect=0;portConstraint=eastwest;newEdgeStyle={&quot;curved&quot;:0,&quot;rounded&quot;:0};" parent="1" vertex="1">
          <mxGeometry x="325" y="150" width="100" height="1290" as="geometry" />
        </mxCell>
        <mxCell id="9yuaqkuuKC39MN3WJqX9-4" style="edgeStyle=orthogonalEdgeStyle;rounded=0;orthogonalLoop=1;jettySize=auto;html=1;curved=0;" parent="9XVVSbY3bbq7c6_Pm6am-6" source="9XVVSbY3bbq7c6_Pm6am-9" target="9yuaqkuuKC39MN3WJqX9-1" edge="1">
          <mxGeometry relative="1" as="geometry">
            <Array as="points">
              <mxPoint x="85" y="90" />
              <mxPoint x="85" y="110" />
            </Array>
          </mxGeometry>
        </mxCell>
        <mxCell id="9yuaqkuuKC39MN3WJqX9-5" value="checkModeToggle()" style="edgeLabel;html=1;align=center;verticalAlign=middle;resizable=0;points=[];" parent="9yuaqkuuKC39MN3WJqX9-4" vertex="1" connectable="0">
          <mxGeometry x="0.2476" relative="1" as="geometry">
            <mxPoint x="50" y="-3" as="offset" />
          </mxGeometry>
        </mxCell>
        <mxCell id="9XVVSbY3bbq7c6_Pm6am-9" value="" style="html=1;points=[[0,0,0,0,5],[0,1,0,0,-5],[1,0,0,0,5],[1,1,0,0,-5]];perimeter=orthogonalPerimeter;outlineConnect=0;targetShapes=umlLifeline;portConstraint=eastwest;newEdgeStyle={&quot;curved&quot;:0,&quot;rounded&quot;:0};" parent="9XVVSbY3bbq7c6_Pm6am-6" vertex="1">
          <mxGeometry x="45" y="70" width="10" height="360" as="geometry" />
        </mxCell>
        <mxCell id="9XVVSbY3bbq7c6_Pm6am-15" value="" style="html=1;points=[[0,0,0,0,5],[0,1,0,0,-5],[1,0,0,0,5],[1,1,0,0,-5]];perimeter=orthogonalPerimeter;outlineConnect=0;targetShapes=umlLifeline;portConstraint=eastwest;newEdgeStyle={&quot;curved&quot;:0,&quot;rounded&quot;:0};" parent="9XVVSbY3bbq7c6_Pm6am-6" vertex="1">
          <mxGeometry x="55" y="230" width="10" height="40" as="geometry" />
        </mxCell>
        <mxCell id="T2vPj24JK6pzReiYTWMQ-1" value="" style="html=1;points=[[0,0,0,0,5],[0,1,0,0,-5],[1,0,0,0,5],[1,1,0,0,-5]];perimeter=orthogonalPerimeter;outlineConnect=0;targetShapes=umlLifeline;portConstraint=eastwest;newEdgeStyle={&quot;curved&quot;:0,&quot;rounded&quot;:0};" parent="9XVVSbY3bbq7c6_Pm6am-6" vertex="1">
          <mxGeometry x="45" y="446" width="10" height="40" as="geometry" />
        </mxCell>
        <mxCell id="T2vPj24JK6pzReiYTWMQ-10" style="edgeStyle=orthogonalEdgeStyle;rounded=0;orthogonalLoop=1;jettySize=auto;html=1;curved=0;" parent="9XVVSbY3bbq7c6_Pm6am-6" source="T2vPj24JK6pzReiYTWMQ-5" target="T2vPj24JK6pzReiYTWMQ-9" edge="1">
          <mxGeometry relative="1" as="geometry">
            <Array as="points">
              <mxPoint x="135" y="770" />
              <mxPoint x="135" y="800" />
            </Array>
          </mxGeometry>
        </mxCell>
        <mxCell id="T2vPj24JK6pzReiYTWMQ-11" value="handleShooting()" style="edgeLabel;html=1;align=center;verticalAlign=middle;resizable=0;points=[];" parent="T2vPj24JK6pzReiYTWMQ-10" vertex="1" connectable="0">
          <mxGeometry x="-0.4533" y="-1" relative="1" as="geometry">
            <mxPoint x="81" y="13" as="offset" />
          </mxGeometry>
        </mxCell>
        <mxCell id="T2vPj24JK6pzReiYTWMQ-5" value="" style="html=1;points=[[0,0,0,0,5],[0,1,0,0,-5],[1,0,0,0,5],[1,1,0,0,-5]];perimeter=orthogonalPerimeter;outlineConnect=0;targetShapes=umlLifeline;portConstraint=eastwest;newEdgeStyle={&quot;curved&quot;:0,&quot;rounded&quot;:0};" parent="9XVVSbY3bbq7c6_Pm6am-6" vertex="1">
          <mxGeometry x="45" y="625" width="10" height="545" as="geometry" />
        </mxCell>
        <mxCell id="T2vPj24JK6pzReiYTWMQ-34" style="edgeStyle=orthogonalEdgeStyle;rounded=0;orthogonalLoop=1;jettySize=auto;html=1;curved=0;" parent="9XVVSbY3bbq7c6_Pm6am-6" source="9yuaqkuuKC39MN3WJqX9-24" target="T2vPj24JK6pzReiYTWMQ-31" edge="1">
          <mxGeometry relative="1" as="geometry">
            <Array as="points">
              <mxPoint x="115" y="930" />
              <mxPoint x="115" y="950" />
            </Array>
            <mxPoint x="102" y="1020" as="sourcePoint" />
          </mxGeometry>
        </mxCell>
        <mxCell id="T2vPj24JK6pzReiYTWMQ-35" value="tX = getX(): double" style="edgeLabel;html=1;align=center;verticalAlign=middle;resizable=0;points=[];" parent="T2vPj24JK6pzReiYTWMQ-34" vertex="1" connectable="0">
          <mxGeometry x="0.2344" y="1" relative="1" as="geometry">
            <mxPoint x="49" y="-8" as="offset" />
          </mxGeometry>
        </mxCell>
        <mxCell id="9yuaqkuuKC39MN3WJqX9-25" style="edgeStyle=orthogonalEdgeStyle;rounded=0;orthogonalLoop=1;jettySize=auto;html=1;curved=0;" parent="9XVVSbY3bbq7c6_Pm6am-6" source="T2vPj24JK6pzReiYTWMQ-9" target="9yuaqkuuKC39MN3WJqX9-24" edge="1">
          <mxGeometry relative="1" as="geometry">
            <Array as="points">
              <mxPoint x="105" y="880" />
              <mxPoint x="105" y="900" />
            </Array>
          </mxGeometry>
        </mxCell>
        <mxCell id="9yuaqkuuKC39MN3WJqX9-26" value="aimAndShoot(mX,mY)" style="edgeLabel;html=1;align=center;verticalAlign=middle;resizable=0;points=[];" parent="9yuaqkuuKC39MN3WJqX9-25" vertex="1" connectable="0">
          <mxGeometry x="0.0444" y="2" relative="1" as="geometry">
            <mxPoint x="58" as="offset" />
          </mxGeometry>
        </mxCell>
        <mxCell id="T2vPj24JK6pzReiYTWMQ-9" value="" style="html=1;points=[[0,0,0,0,5],[0,1,0,0,-5],[1,0,0,0,5],[1,1,0,0,-5]];perimeter=orthogonalPerimeter;outlineConnect=0;targetShapes=umlLifeline;portConstraint=eastwest;newEdgeStyle={&quot;curved&quot;:0,&quot;rounded&quot;:0};" parent="9XVVSbY3bbq7c6_Pm6am-6" vertex="1">
          <mxGeometry x="55" y="792" width="10" height="338" as="geometry" />
        </mxCell>
        <mxCell id="T2vPj24JK6pzReiYTWMQ-31" value="" style="html=1;points=[[0,0,0,0,5],[0,1,0,0,-5],[1,0,0,0,5],[1,1,0,0,-5]];perimeter=orthogonalPerimeter;outlineConnect=0;targetShapes=umlLifeline;portConstraint=eastwest;newEdgeStyle={&quot;curved&quot;:0,&quot;rounded&quot;:0};" parent="9XVVSbY3bbq7c6_Pm6am-6" vertex="1">
          <mxGeometry x="75" y="940" width="10" height="20" as="geometry" />
        </mxCell>
        <mxCell id="T2vPj24JK6pzReiYTWMQ-33" value="" style="html=1;points=[[0,0,0,0,5],[0,1,0,0,-5],[1,0,0,0,5],[1,1,0,0,-5]];perimeter=orthogonalPerimeter;outlineConnect=0;targetShapes=umlLifeline;portConstraint=eastwest;newEdgeStyle={&quot;curved&quot;:0,&quot;rounded&quot;:0};" parent="9XVVSbY3bbq7c6_Pm6am-6" vertex="1">
          <mxGeometry x="75" y="980" width="10" height="20" as="geometry" />
        </mxCell>
        <mxCell id="T2vPj24JK6pzReiYTWMQ-36" style="edgeStyle=orthogonalEdgeStyle;rounded=0;orthogonalLoop=1;jettySize=auto;html=1;curved=0;" parent="9XVVSbY3bbq7c6_Pm6am-6" source="9yuaqkuuKC39MN3WJqX9-24" target="T2vPj24JK6pzReiYTWMQ-33" edge="1">
          <mxGeometry relative="1" as="geometry">
            <Array as="points">
              <mxPoint x="115" y="970" />
              <mxPoint x="115" y="990" />
            </Array>
            <mxPoint x="102" y="1060" as="sourcePoint" />
          </mxGeometry>
        </mxCell>
        <mxCell id="T2vPj24JK6pzReiYTWMQ-37" value="tY = getY(): double" style="edgeLabel;html=1;align=center;verticalAlign=middle;resizable=0;points=[];" parent="T2vPj24JK6pzReiYTWMQ-36" vertex="1" connectable="0">
          <mxGeometry x="0.2422" y="-1" relative="1" as="geometry">
            <mxPoint x="51" y="-7" as="offset" />
          </mxGeometry>
        </mxCell>
        <mxCell id="9yuaqkuuKC39MN3WJqX9-1" value="" style="html=1;points=[[0,0,0,0,5],[0,1,0,0,-5],[1,0,0,0,5],[1,1,0,0,-5]];perimeter=orthogonalPerimeter;outlineConnect=0;targetShapes=umlLifeline;portConstraint=eastwest;newEdgeStyle={&quot;curved&quot;:0,&quot;rounded&quot;:0};" parent="9XVVSbY3bbq7c6_Pm6am-6" vertex="1">
          <mxGeometry x="55" y="95" width="10" height="105" as="geometry" />
        </mxCell>
        <mxCell id="9yuaqkuuKC39MN3WJqX9-8" value="" style="html=1;points=[[0,0,0,0,5],[0,1,0,0,-5],[1,0,0,0,5],[1,1,0,0,-5]];perimeter=orthogonalPerimeter;outlineConnect=0;targetShapes=umlLifeline;portConstraint=eastwest;newEdgeStyle={&quot;curved&quot;:0,&quot;rounded&quot;:0};" parent="9XVVSbY3bbq7c6_Pm6am-6" vertex="1">
          <mxGeometry x="55" y="390" width="10" height="30" as="geometry" />
        </mxCell>
        <mxCell id="9yuaqkuuKC39MN3WJqX9-9" style="edgeStyle=orthogonalEdgeStyle;rounded=0;orthogonalLoop=1;jettySize=auto;html=1;curved=0;" parent="9XVVSbY3bbq7c6_Pm6am-6" source="9XVVSbY3bbq7c6_Pm6am-9" target="9yuaqkuuKC39MN3WJqX9-8" edge="1">
          <mxGeometry relative="1" as="geometry">
            <Array as="points">
              <mxPoint x="85" y="380" />
              <mxPoint x="85" y="410" />
            </Array>
            <mxPoint x="65" y="390" as="sourcePoint" />
            <mxPoint x="75" y="410" as="targetPoint" />
          </mxGeometry>
        </mxCell>
        <mxCell id="9yuaqkuuKC39MN3WJqX9-10" value="aimAndShoot()" style="edgeLabel;html=1;align=center;verticalAlign=middle;resizable=0;points=[];" parent="9yuaqkuuKC39MN3WJqX9-9" vertex="1" connectable="0">
          <mxGeometry x="-0.4533" y="-1" relative="1" as="geometry">
            <mxPoint x="18" y="-11" as="offset" />
          </mxGeometry>
        </mxCell>
        <mxCell id="9yuaqkuuKC39MN3WJqX9-16" style="edgeStyle=orthogonalEdgeStyle;rounded=0;orthogonalLoop=1;jettySize=auto;html=1;curved=0;" parent="9XVVSbY3bbq7c6_Pm6am-6" source="T2vPj24JK6pzReiYTWMQ-5" target="9yuaqkuuKC39MN3WJqX9-18" edge="1">
          <mxGeometry relative="1" as="geometry">
            <mxPoint x="60" y="640" as="sourcePoint" />
            <Array as="points">
              <mxPoint x="90" y="640" />
              <mxPoint x="90" y="660" />
            </Array>
          </mxGeometry>
        </mxCell>
        <mxCell id="9yuaqkuuKC39MN3WJqX9-17" value="checkModeToggle()" style="edgeLabel;html=1;align=center;verticalAlign=middle;resizable=0;points=[];" parent="9yuaqkuuKC39MN3WJqX9-16" vertex="1" connectable="0">
          <mxGeometry x="0.2476" relative="1" as="geometry">
            <mxPoint x="50" y="-3" as="offset" />
          </mxGeometry>
        </mxCell>
        <mxCell id="9yuaqkuuKC39MN3WJqX9-18" value="" style="html=1;points=[[0,0,0,0,5],[0,1,0,0,-5],[1,0,0,0,5],[1,1,0,0,-5]];perimeter=orthogonalPerimeter;outlineConnect=0;targetShapes=umlLifeline;portConstraint=eastwest;newEdgeStyle={&quot;curved&quot;:0,&quot;rounded&quot;:0};" parent="9XVVSbY3bbq7c6_Pm6am-6" vertex="1">
          <mxGeometry x="55" y="650" width="10" height="70" as="geometry" />
        </mxCell>
        <mxCell id="9yuaqkuuKC39MN3WJqX9-24" value="" style="html=1;points=[[0,0,0,0,5],[0,1,0,0,-5],[1,0,0,0,5],[1,1,0,0,-5]];perimeter=orthogonalPerimeter;outlineConnect=0;targetShapes=umlLifeline;portConstraint=eastwest;newEdgeStyle={&quot;curved&quot;:0,&quot;rounded&quot;:0};" parent="9XVVSbY3bbq7c6_Pm6am-6" vertex="1">
          <mxGeometry x="65" y="890" width="10" height="200" as="geometry" />
        </mxCell>
        <mxCell id="9XVVSbY3bbq7c6_Pm6am-7" style="edgeStyle=orthogonalEdgeStyle;rounded=0;orthogonalLoop=1;jettySize=auto;html=1;curved=0;" parent="1" source="9XVVSbY3bbq7c6_Pm6am-5" target="9XVVSbY3bbq7c6_Pm6am-9" edge="1">
          <mxGeometry relative="1" as="geometry">
            <mxPoint x="210" y="219.99857142857135" as="sourcePoint" />
            <mxPoint x="379.5" y="199.99857142857135" as="targetPoint" />
            <Array as="points">
              <mxPoint x="340" y="230" />
              <mxPoint x="340" y="230" />
            </Array>
          </mxGeometry>
        </mxCell>
        <mxCell id="9XVVSbY3bbq7c6_Pm6am-8" value="act()" style="edgeLabel;html=1;align=center;verticalAlign=middle;resizable=0;points=[];" parent="9XVVSbY3bbq7c6_Pm6am-7" vertex="1" connectable="0">
          <mxGeometry x="0.1614" y="-2" relative="1" as="geometry">
            <mxPoint x="-11" y="-12" as="offset" />
          </mxGeometry>
        </mxCell>
        <mxCell id="9XVVSbY3bbq7c6_Pm6am-10" value="GotG:GameWorld" style="shape=umlLifeline;perimeter=lifelinePerimeter;whiteSpace=wrap;html=1;container=1;dropTarget=0;collapsible=0;recursiveResize=0;outlineConnect=0;portConstraint=eastwest;newEdgeStyle={&quot;curved&quot;:0,&quot;rounded&quot;:0};" parent="1" vertex="1">
          <mxGeometry x="530" y="150" width="100" height="1290" as="geometry" />
        </mxCell>
        <mxCell id="9XVVSbY3bbq7c6_Pm6am-11" value="" style="html=1;points=[[0,0,0,0,5],[0,1,0,0,-5],[1,0,0,0,5],[1,1,0,0,-5]];perimeter=orthogonalPerimeter;outlineConnect=0;targetShapes=umlLifeline;portConstraint=eastwest;newEdgeStyle={&quot;curved&quot;:0,&quot;rounded&quot;:0};" parent="9XVVSbY3bbq7c6_Pm6am-10" vertex="1">
          <mxGeometry x="45" y="180" width="10" height="180" as="geometry" />
        </mxCell>
        <mxCell id="9XVVSbY3bbq7c6_Pm6am-13" style="edgeStyle=orthogonalEdgeStyle;rounded=0;orthogonalLoop=1;jettySize=auto;html=1;curved=0;" parent="1" source="9yuaqkuuKC39MN3WJqX9-1" target="9XVVSbY3bbq7c6_Pm6am-11" edge="1">
          <mxGeometry relative="1" as="geometry">
            <Array as="points">
              <mxPoint x="440" y="340" />
              <mxPoint x="440" y="340" />
            </Array>
            <mxPoint x="380" y="340" as="sourcePoint" />
          </mxGeometry>
        </mxCell>
        <mxCell id="9XVVSbY3bbq7c6_Pm6am-14" value="[mc] setPlayerControlled(this)" style="edgeLabel;html=1;align=center;verticalAlign=middle;resizable=0;points=[];" parent="9XVVSbY3bbq7c6_Pm6am-13" vertex="1" connectable="0">
          <mxGeometry x="-0.1645" y="1" relative="1" as="geometry">
            <mxPoint x="13" y="-9" as="offset" />
          </mxGeometry>
        </mxCell>
        <mxCell id="9XVVSbY3bbq7c6_Pm6am-16" style="edgeStyle=orthogonalEdgeStyle;rounded=0;orthogonalLoop=1;jettySize=auto;html=1;curved=0;" parent="1" source="9XVVSbY3bbq7c6_Pm6am-11" target="9XVVSbY3bbq7c6_Pm6am-15" edge="1">
          <mxGeometry relative="1" as="geometry">
            <Array as="points">
              <mxPoint x="420" y="390" />
              <mxPoint x="420" y="390" />
            </Array>
          </mxGeometry>
        </mxCell>
        <mxCell id="9XVVSbY3bbq7c6_Pm6am-17" value="markPlayerControlled(true)" style="edgeLabel;html=1;align=center;verticalAlign=middle;resizable=0;points=[];" parent="9XVVSbY3bbq7c6_Pm6am-16" vertex="1" connectable="0">
          <mxGeometry x="0.1645" relative="1" as="geometry">
            <mxPoint x="19" y="-10" as="offset" />
          </mxGeometry>
        </mxCell>
        <mxCell id="9XVVSbY3bbq7c6_Pm6am-18" value="foreach tower[j] where j !=i" style="shape=umlFrame;whiteSpace=wrap;html=1;pointerEvents=0;width=90;height=50;" parent="1" vertex="1">
          <mxGeometry x="470" y="430" width="350" height="90" as="geometry" />
        </mxCell>
        <mxCell id="9XVVSbY3bbq7c6_Pm6am-20" style="edgeStyle=orthogonalEdgeStyle;rounded=0;orthogonalLoop=1;jettySize=auto;html=1;curved=0;" parent="1" source="9XVVSbY3bbq7c6_Pm6am-11" target="9XVVSbY3bbq7c6_Pm6am-27" edge="1">
          <mxGeometry relative="1" as="geometry">
            <Array as="points">
              <mxPoint x="630" y="460" />
              <mxPoint x="630" y="460" />
            </Array>
          </mxGeometry>
        </mxCell>
        <mxCell id="9XVVSbY3bbq7c6_Pm6am-21" value="markPlayerControlled(false)" style="edgeLabel;html=1;align=center;verticalAlign=middle;resizable=0;points=[];" parent="9XVVSbY3bbq7c6_Pm6am-20" vertex="1" connectable="0">
          <mxGeometry x="0.2264" y="-2" relative="1" as="geometry">
            <mxPoint x="-23" y="-12" as="offset" />
          </mxGeometry>
        </mxCell>
        <mxCell id="9XVVSbY3bbq7c6_Pm6am-22" style="edgeStyle=orthogonalEdgeStyle;rounded=0;orthogonalLoop=1;jettySize=auto;html=1;curved=0;dashed=1;" parent="1" target="9XVVSbY3bbq7c6_Pm6am-1" edge="1">
          <mxGeometry relative="1" as="geometry">
            <Array as="points">
              <mxPoint x="195" y="1350" />
            </Array>
            <mxPoint x="195" y="1333" as="sourcePoint" />
            <mxPoint x="49.5" y="1333" as="targetPoint" />
          </mxGeometry>
        </mxCell>
        <mxCell id="9XVVSbY3bbq7c6_Pm6am-23" value="tower shoots projectile at&amp;nbsp;&lt;div&gt;mouse&#39;s position&lt;/div&gt;" style="edgeLabel;html=1;align=center;verticalAlign=middle;resizable=0;points=[];" parent="9XVVSbY3bbq7c6_Pm6am-22" vertex="1" connectable="0">
          <mxGeometry x="0.1758" y="-2" relative="1" as="geometry">
            <mxPoint x="3" y="-18" as="offset" />
          </mxGeometry>
        </mxCell>
        <mxCell id="9XVVSbY3bbq7c6_Pm6am-24" value="&amp;lt;&amp;lt;Actor&amp;gt;&amp;gt;&lt;div&gt;tower[j]:Tower&lt;/div&gt;" style="shape=umlLifeline;perimeter=lifelinePerimeter;whiteSpace=wrap;html=1;container=1;dropTarget=0;collapsible=0;recursiveResize=0;outlineConnect=0;portConstraint=eastwest;newEdgeStyle={&quot;curved&quot;:0,&quot;rounded&quot;:0};" parent="1" vertex="1">
          <mxGeometry x="728" y="150" width="100" height="1290" as="geometry" />
        </mxCell>
        <mxCell id="9XVVSbY3bbq7c6_Pm6am-27" value="" style="html=1;points=[[0,0,0,0,5],[0,1,0,0,-5],[1,0,0,0,5],[1,1,0,0,-5]];perimeter=orthogonalPerimeter;outlineConnect=0;targetShapes=umlLifeline;portConstraint=eastwest;newEdgeStyle={&quot;curved&quot;:0,&quot;rounded&quot;:0};" parent="9XVVSbY3bbq7c6_Pm6am-24" vertex="1">
          <mxGeometry x="45" y="300" width="10" height="40" as="geometry" />
        </mxCell>
        <mxCell id="T2vPj24JK6pzReiYTWMQ-2" style="edgeStyle=orthogonalEdgeStyle;rounded=0;orthogonalLoop=1;jettySize=auto;html=1;curved=0;" parent="1" target="T2vPj24JK6pzReiYTWMQ-1" edge="1">
          <mxGeometry relative="1" as="geometry">
            <Array as="points">
              <mxPoint x="250" y="606" />
              <mxPoint x="250" y="606" />
            </Array>
            <mxPoint x="205" y="606" as="sourcePoint" />
          </mxGeometry>
        </mxCell>
        <mxCell id="T2vPj24JK6pzReiYTWMQ-4" value="act()" style="edgeLabel;html=1;align=center;verticalAlign=middle;resizable=0;points=[];" parent="T2vPj24JK6pzReiYTWMQ-2" vertex="1" connectable="0">
          <mxGeometry x="-0.1636" y="5" relative="1" as="geometry">
            <mxPoint x="16" y="-5" as="offset" />
          </mxGeometry>
        </mxCell>
        <mxCell id="T2vPj24JK6pzReiYTWMQ-3" value="while not time to shoot" style="shape=umlFrame;whiteSpace=wrap;html=1;pointerEvents=0;width=100;height=40;" parent="1" vertex="1">
          <mxGeometry x="80" y="440" width="380" height="206" as="geometry" />
        </mxCell>
        <mxCell id="T2vPj24JK6pzReiYTWMQ-7" style="edgeStyle=orthogonalEdgeStyle;rounded=0;orthogonalLoop=1;jettySize=auto;html=1;curved=0;" parent="1" target="T2vPj24JK6pzReiYTWMQ-5" edge="1">
          <mxGeometry relative="1" as="geometry">
            <Array as="points">
              <mxPoint x="250" y="785" />
              <mxPoint x="250" y="785" />
            </Array>
            <mxPoint x="205" y="785" as="sourcePoint" />
          </mxGeometry>
        </mxCell>
        <mxCell id="T2vPj24JK6pzReiYTWMQ-8" value="act()" style="edgeLabel;html=1;align=center;verticalAlign=middle;resizable=0;points=[];" parent="T2vPj24JK6pzReiYTWMQ-7" vertex="1" connectable="0">
          <mxGeometry x="-0.0376" y="-1" relative="1" as="geometry">
            <mxPoint x="6" y="-11" as="offset" />
          </mxGeometry>
        </mxCell>
        <mxCell id="T2vPj24JK6pzReiYTWMQ-12" style="edgeStyle=orthogonalEdgeStyle;rounded=0;orthogonalLoop=1;jettySize=auto;html=1;curved=0;" parent="1" target="9XVVSbY3bbq7c6_Pm6am-5" edge="1">
          <mxGeometry relative="1" as="geometry">
            <Array as="points">
              <mxPoint x="420" y="1213" />
              <mxPoint x="420" y="1330" />
            </Array>
            <mxPoint x="400" y="1213" as="sourcePoint" />
            <mxPoint x="205" y="1313" as="targetPoint" />
          </mxGeometry>
        </mxCell>
        <mxCell id="T2vPj24JK6pzReiYTWMQ-19" value="addObject(p,tX,tY)" style="edgeLabel;html=1;align=center;verticalAlign=middle;resizable=0;points=[];" parent="T2vPj24JK6pzReiYTWMQ-12" vertex="1" connectable="0">
          <mxGeometry x="0.2019" y="4" relative="1" as="geometry">
            <mxPoint x="-49" y="-14" as="offset" />
          </mxGeometry>
        </mxCell>
        <mxCell id="T2vPj24JK6pzReiYTWMQ-13" value="&amp;lt;&amp;lt;Actor&amp;gt;&amp;gt;&lt;div&gt;p:Projectile&lt;/div&gt;" style="shape=umlLifeline;perimeter=lifelinePerimeter;whiteSpace=wrap;html=1;container=1;dropTarget=0;collapsible=0;recursiveResize=0;outlineConnect=0;portConstraint=eastwest;newEdgeStyle={&quot;curved&quot;:0,&quot;rounded&quot;:0};" parent="1" vertex="1">
          <mxGeometry x="820" y="1070" width="100" height="370" as="geometry" />
        </mxCell>
        <mxCell id="T2vPj24JK6pzReiYTWMQ-25" value="" style="html=1;points=[[0,0,0,0,5],[0,1,0,0,-5],[1,0,0,0,5],[1,1,0,0,-5]];perimeter=orthogonalPerimeter;outlineConnect=0;targetShapes=umlLifeline;portConstraint=eastwest;newEdgeStyle={&quot;curved&quot;:0,&quot;rounded&quot;:0};" parent="T2vPj24JK6pzReiYTWMQ-13" vertex="1">
          <mxGeometry x="45" y="100" width="10" height="30" as="geometry" />
        </mxCell>
        <mxCell id="T2vPj24JK6pzReiYTWMQ-17" style="edgeStyle=orthogonalEdgeStyle;rounded=0;orthogonalLoop=1;jettySize=auto;html=1;curved=0;strokeColor=default;" parent="1" target="T2vPj24JK6pzReiYTWMQ-25" edge="1">
          <mxGeometry relative="1" as="geometry">
            <mxPoint x="400" y="1178" as="sourcePoint" />
            <mxPoint x="870" y="1212.95" as="targetPoint" />
            <Array as="points">
              <mxPoint x="520" y="1178" />
              <mxPoint x="520" y="1178" />
            </Array>
          </mxGeometry>
        </mxCell>
        <mxCell id="T2vPj24JK6pzReiYTWMQ-18" value="p = Projectile(deltaX,deltaY): Projectile" style="edgeLabel;html=1;align=center;verticalAlign=middle;resizable=0;points=[];" parent="T2vPj24JK6pzReiYTWMQ-17" vertex="1" connectable="0">
          <mxGeometry x="-0.0858" y="-1" relative="1" as="geometry">
            <mxPoint x="74" y="-11" as="offset" />
          </mxGeometry>
        </mxCell>
        <mxCell id="T2vPj24JK6pzReiYTWMQ-20" value="m:MouseInfo" style="shape=umlLifeline;perimeter=lifelinePerimeter;whiteSpace=wrap;html=1;container=1;dropTarget=0;collapsible=0;recursiveResize=0;outlineConnect=0;portConstraint=eastwest;newEdgeStyle={&quot;curved&quot;:0,&quot;rounded&quot;:0};" parent="1" vertex="1">
          <mxGeometry x="910" y="150" width="100" height="1290" as="geometry" />
        </mxCell>
        <mxCell id="T2vPj24JK6pzReiYTWMQ-27" value="" style="html=1;points=[[0,0,0,0,5],[0,1,0,0,-5],[1,0,0,0,5],[1,1,0,0,-5]];perimeter=orthogonalPerimeter;outlineConnect=0;targetShapes=umlLifeline;portConstraint=eastwest;newEdgeStyle={&quot;curved&quot;:0,&quot;rounded&quot;:0};" parent="T2vPj24JK6pzReiYTWMQ-20" vertex="1">
          <mxGeometry x="45" y="822" width="10" height="20" as="geometry" />
        </mxCell>
        <mxCell id="T2vPj24JK6pzReiYTWMQ-28" value="" style="html=1;points=[[0,0,0,0,5],[0,1,0,0,-5],[1,0,0,0,5],[1,1,0,0,-5]];perimeter=orthogonalPerimeter;outlineConnect=0;targetShapes=umlLifeline;portConstraint=eastwest;newEdgeStyle={&quot;curved&quot;:0,&quot;rounded&quot;:0};" parent="T2vPj24JK6pzReiYTWMQ-20" vertex="1">
          <mxGeometry x="45" y="852" width="10" height="20" as="geometry" />
        </mxCell>
        <mxCell id="T2vPj24JK6pzReiYTWMQ-22" style="edgeStyle=orthogonalEdgeStyle;rounded=0;orthogonalLoop=1;jettySize=auto;html=1;curved=0;" parent="1" source="T2vPj24JK6pzReiYTWMQ-9" target="T2vPj24JK6pzReiYTWMQ-27" edge="1">
          <mxGeometry relative="1" as="geometry">
            <mxPoint x="975" y="982" as="targetPoint" />
            <Array as="points">
              <mxPoint x="530" y="982" />
              <mxPoint x="530" y="982" />
            </Array>
          </mxGeometry>
        </mxCell>
        <mxCell id="T2vPj24JK6pzReiYTWMQ-26" value="mX = getX(): double" style="edgeLabel;html=1;align=center;verticalAlign=middle;resizable=0;points=[];" parent="T2vPj24JK6pzReiYTWMQ-22" vertex="1" connectable="0">
          <mxGeometry x="0.0699" y="-2" relative="1" as="geometry">
            <mxPoint x="-33" y="-12" as="offset" />
          </mxGeometry>
        </mxCell>
        <mxCell id="T2vPj24JK6pzReiYTWMQ-29" style="edgeStyle=orthogonalEdgeStyle;rounded=0;orthogonalLoop=1;jettySize=auto;html=1;curved=0;" parent="1" source="T2vPj24JK6pzReiYTWMQ-9" target="T2vPj24JK6pzReiYTWMQ-28" edge="1">
          <mxGeometry relative="1" as="geometry">
            <Array as="points">
              <mxPoint x="530" y="1012" />
              <mxPoint x="530" y="1012" />
            </Array>
          </mxGeometry>
        </mxCell>
        <mxCell id="T2vPj24JK6pzReiYTWMQ-30" value="mY = getY(): double" style="edgeLabel;html=1;align=center;verticalAlign=middle;resizable=0;points=[];" parent="T2vPj24JK6pzReiYTWMQ-29" vertex="1" connectable="0">
          <mxGeometry x="0.0454" relative="1" as="geometry">
            <mxPoint x="-26" y="-10" as="offset" />
          </mxGeometry>
        </mxCell>
        <mxCell id="9yuaqkuuKC39MN3WJqX9-6" style="edgeStyle=orthogonalEdgeStyle;rounded=0;orthogonalLoop=1;jettySize=auto;html=1;curved=0;" parent="1" source="9yuaqkuuKC39MN3WJqX9-1" target="9XVVSbY3bbq7c6_Pm6am-5" edge="1">
          <mxGeometry relative="1" as="geometry">
            <mxPoint x="60" y="320" as="sourcePoint" />
            <mxPoint x="225" y="320" as="targetPoint" />
            <Array as="points">
              <mxPoint x="420" y="290" />
              <mxPoint x="420" y="298" />
            </Array>
          </mxGeometry>
        </mxCell>
        <mxCell id="9yuaqkuuKC39MN3WJqX9-7" value="mc = mouseClicked(this)" style="edgeLabel;html=1;align=center;verticalAlign=middle;resizable=0;points=[];" parent="9yuaqkuuKC39MN3WJqX9-6" vertex="1" connectable="0">
          <mxGeometry x="0.1614" y="-2" relative="1" as="geometry">
            <mxPoint x="-21" y="-12" as="offset" />
          </mxGeometry>
        </mxCell>
        <mxCell id="9yuaqkuuKC39MN3WJqX9-21" value="Assume mc is false" style="shape=note;size=15;whiteSpace=wrap;html=1;" parent="1" vertex="1">
          <mxGeometry x="430" y="840" width="110" height="40" as="geometry" />
        </mxCell>
        <mxCell id="9yuaqkuuKC39MN3WJqX9-19" style="edgeStyle=orthogonalEdgeStyle;rounded=0;orthogonalLoop=1;jettySize=auto;html=1;curved=0;" parent="1" source="9yuaqkuuKC39MN3WJqX9-18" target="9XVVSbY3bbq7c6_Pm6am-5" edge="1">
          <mxGeometry relative="1" as="geometry">
            <mxPoint x="1280" y="810" as="sourcePoint" />
            <mxPoint x="1010" y="838" as="targetPoint" />
            <Array as="points">
              <mxPoint x="410" y="830" />
              <mxPoint x="410" y="840" />
            </Array>
          </mxGeometry>
        </mxCell>
        <mxCell id="9yuaqkuuKC39MN3WJqX9-20" value="mc = mouseClicked(this)" style="edgeLabel;html=1;align=center;verticalAlign=middle;resizable=0;points=[];" parent="9yuaqkuuKC39MN3WJqX9-19" vertex="1" connectable="0">
          <mxGeometry x="0.1614" y="-2" relative="1" as="geometry">
            <mxPoint x="-14" y="-8" as="offset" />
          </mxGeometry>
        </mxCell>
        <mxCell id="9yuaqkuuKC39MN3WJqX9-22" style="edgeStyle=orthogonalEdgeStyle;rounded=0;orthogonalLoop=1;jettySize=auto;html=1;curved=0;" parent="1" source="T2vPj24JK6pzReiYTWMQ-9" target="9XVVSbY3bbq7c6_Pm6am-5" edge="1">
          <mxGeometry relative="1" as="geometry">
            <mxPoint x="425" y="960" as="sourcePoint" />
            <mxPoint x="240" y="970" as="targetPoint" />
            <Array as="points">
              <mxPoint x="445" y="960" />
              <mxPoint x="445" y="970" />
            </Array>
          </mxGeometry>
        </mxCell>
        <mxCell id="9yuaqkuuKC39MN3WJqX9-23" value="m = getMouseInfo()" style="edgeLabel;html=1;align=center;verticalAlign=middle;resizable=0;points=[];" parent="9yuaqkuuKC39MN3WJqX9-22" vertex="1" connectable="0">
          <mxGeometry x="0.1614" y="-2" relative="1" as="geometry">
            <mxPoint x="-40" y="-8" as="offset" />
          </mxGeometry>
        </mxCell>
      </root>
    </mxGraphModel>
  </diagram>
</mxfile>
